<svg width="24" height="24" viewBox="0 0 24 24" fill="none" xmlns="http://www.w3.org/2000/svg">
<path d="M19.3333 12.2857H17.8667V13.5H19.3333C19.9166 13.5005 20.4759 13.6925 20.8883 14.034C21.3008 14.3755 21.5328 14.8385 21.5333 15.3214V17.75H23V15.3214C22.9988 14.5166 22.6122 13.745 21.9248 13.1759C21.2374 12.6068 20.3054 12.2867 19.3333 12.2857ZM17.8667 6.21429C18.3018 6.21429 18.7271 6.32111 19.0889 6.52125C19.4507 6.72139 19.7327 7.00586 19.8992 7.33868C20.0657 7.67151 20.1093 8.03773 20.0244 8.39106C19.9395 8.74438 19.73 9.06893 19.4223 9.32366C19.1146 9.57839 18.7226 9.75186 18.2959 9.82214C17.8691 9.89243 17.4268 9.85635 17.0248 9.71849C16.6228 9.58064 16.2792 9.34718 16.0374 9.04765C15.7957 8.74811 15.6667 8.39596 15.6667 8.03571C15.6667 7.55264 15.8985 7.08935 16.311 6.74777C16.7236 6.40619 17.2832 6.21429 17.8667 6.21429ZM17.8667 5C17.1415 5 16.4326 5.17804 15.8296 5.51161C15.2266 5.84518 14.7566 6.31929 14.4791 6.874C14.2016 7.4287 14.129 8.03908 14.2705 8.62795C14.4119 9.21682 14.7611 9.75774 15.2739 10.1823C15.7867 10.6068 16.4401 10.896 17.1513 11.0131C17.8626 11.1302 18.5998 11.0701 19.2698 10.8403C19.9398 10.6106 20.5125 10.2215 20.9154 9.72227C21.3183 9.22305 21.5333 8.63612 21.5333 8.03571C21.5333 7.23059 21.147 6.45845 20.4594 5.88914C19.7718 5.31983 18.8391 5 17.8667 5ZM17.1333 22H15.6667V20.7857C15.6661 20.3028 15.4341 19.8398 15.0217 19.4983C14.6092 19.1568 14.05 18.9648 13.4667 18.9643H10.5333C9.95004 18.9648 9.3908 19.1568 8.97834 19.4983C8.56589 19.8398 8.33392 20.3028 8.33333 20.7857V22H6.86667V20.7857C6.86783 19.9809 7.25451 19.2093 7.94189 18.6402C8.62928 18.0711 9.56123 17.751 10.5333 17.75H13.4667C14.4388 17.751 15.3707 18.0711 16.0581 18.6402C16.7455 19.2093 17.1322 19.9809 17.1333 20.7857V22ZM12 11.6786C12.4351 11.6786 12.8605 11.7854 13.2223 11.9855C13.584 12.1857 13.866 12.4701 14.0325 12.803C14.199 13.1358 14.2426 13.502 14.1577 13.8553C14.0728 14.2087 13.8633 14.5332 13.5556 14.7879C13.248 15.0427 12.856 15.2162 12.4292 15.2864C12.0024 15.3567 11.5601 15.3206 11.1581 15.1828C10.7561 15.0449 10.4125 14.8115 10.1708 14.5119C9.92903 14.2124 9.8 13.8602 9.8 13.5C9.8 13.0169 10.0318 12.5536 10.4444 12.2121C10.8569 11.8705 11.4165 11.6786 12 11.6786ZM12 10.4643C11.2748 10.4643 10.5659 10.6423 9.96291 10.9759C9.35993 11.3095 8.88996 11.7836 8.61244 12.3383C8.33492 12.893 8.26231 13.5034 8.40379 14.0922C8.54527 14.6811 8.89448 15.222 9.40728 15.6466C9.92007 16.0711 10.5734 16.3603 11.2847 16.4774C11.9959 16.5945 12.7332 16.5344 13.4032 16.3046C14.0732 16.0749 14.6458 15.6858 15.0487 15.1866C15.4516 14.6873 15.6667 14.1004 15.6667 13.5C15.6667 12.6949 15.2804 11.9227 14.5927 11.3534C13.9051 10.7841 12.9725 10.4643 12 10.4643ZM6.13333 12.2857H4.66667C3.69456 12.2867 2.76261 12.6068 2.07523 13.1759C1.38785 13.745 1.00116 14.5166 1 15.3214V17.75H2.46667V15.3214C2.46725 14.8385 2.69922 14.3755 3.11168 14.034C3.52413 13.6925 4.08337 13.5005 4.66667 13.5H6.13333V12.2857ZM6.13333 6.21429C6.56845 6.21429 6.9938 6.32111 7.35559 6.52125C7.71738 6.72139 7.99936 7.00586 8.16587 7.33868C8.33238 7.67151 8.37595 8.03773 8.29106 8.39106C8.20617 8.74438 7.99664 9.06893 7.68897 9.32366C7.38129 9.57839 6.98929 9.75186 6.56253 9.82214C6.13577 9.89243 5.69343 9.85635 5.29143 9.71849C4.88943 9.58064 4.54584 9.34718 4.3041 9.04765C4.06236 8.74811 3.93333 8.39596 3.93333 8.03571C3.93333 7.55264 4.16512 7.08935 4.5777 6.74777C4.99028 6.40619 5.54986 6.21429 6.13333 6.21429ZM6.13333 5C5.40814 5 4.69922 5.17804 4.09624 5.51161C3.49326 5.84518 3.0233 6.31929 2.74578 6.874C2.46825 7.4287 2.39564 8.03908 2.53712 8.62795C2.6786 9.21682 3.02782 9.75774 3.54061 10.1823C4.0534 10.6068 4.70674 10.896 5.418 11.0131C6.12927 11.1302 6.86651 11.0701 7.53651 10.8403C8.2065 10.6106 8.77916 10.2215 9.18206 9.72227C9.58495 9.22305 9.8 8.63612 9.8 8.03571C9.8 7.23059 9.41369 6.45845 8.72606 5.88914C8.03842 5.31983 7.10579 5 6.13333 5Z" fill="#FFC41D"/>
</svg>
